<svg version="1.2" xmlns="http://www.w3.org/2000/svg" viewBox="0 0 1152 1136" width="1152" height="1136">
	<title>2nF5msCyF1o3MHBC5HU6ljKQFDL-svg</title>
	<style>
		.s0 { fill: #010153 } 
		.s1 { fill: #010152 } 
		.s2 { fill: #000052 } 
		.s3 { fill: #404851 } 
		.s4 { fill: #2b2d43 } 
		.s5 { fill: #3e4650 } 
		.s6 { fill: #111360 } 
		.s7 { fill: #2b2c44 } 
		.s8 { fill: #00003e } 
		.s9 { fill: #2c2d43 } 
		.s10 { fill: #030352 } 
		.s11 { fill: #2a2c43 } 
		.s12 { fill: #040452 } 
		.s13 { fill: #030453 } 
		.s14 { fill: #040552 } 
		.s15 { fill: #020353 } 
		.s16 { fill: #272943 } 
		.s17 { fill: #2c2d44 } 
		.s18 { fill: #394251 } 
		.s19 { fill: #333847 } 
		.s20 { fill: #0c0f61 } 
		.s21 { fill: #111460 } 
		.s22 { fill: #2c2e44 } 
		.s23 { fill: #101361 } 
		.s24 { fill: #323846 } 
		.s25 { fill: #333947 } 
		.s26 { fill: #333a47 } 
		.s27 { fill: #121560 } 
		.s28 { fill: #03043f } 
		.s29 { fill: #050542 } 
		.s30 { fill: #323746 } 
		.s31 { fill: #11135d } 
		.s32 { fill: #384151 } 
		.s33 { fill: #2b2d44 } 
		.s34 { fill: #313745 } 
		.s35 { fill: #394352 } 
		.s36 { fill: #313646 } 
		.s37 { fill: #04043f } 
		.s38 { fill: #2d3044 } 
		.s39 { fill: #050653 } 
		.s40 { fill: #01013e } 
		.s41 { fill: #101261 } 
		.s42 { fill: #050540 } 
		.s43 { fill: #12155f } 
		.s44 { fill: #1a1e5e } 
		.s45 { fill: #3a4352 } 
		.s46 { fill: #3d444f } 
		.s47 { fill: #020240 } 
		.s48 { fill: #171b5f } 
		.s49 { fill: #090b43 } 
		.s50 { fill: #13165f } 
		.s51 { fill: #323747 } 
		.s52 { fill: #404852 } 
		.s53 { fill: #00013e } 
		.s54 { fill: #14175e } 
		.s55 { fill: #323847 } 
		.s56 { fill: #030440 } 
		.s57 { fill: #02023f } 
		.s58 { fill: #0f125f } 
		.s59 { fill: #10135e } 
		.s60 { fill: #323647 } 
		.s61 { fill: #06073f } 
		.s62 { fill: #343a47 } 
		.s63 { fill: #2e3245 } 
		.s64 { fill: #384150 } 
		.s65 { fill: #2d2f44 } 
		.s66 { fill: #03033f } 
		.s67 { fill: #38404f } 
		.s68 { fill: #373f4f } 
		.s69 { fill: #3f4751 } 
		.s70 { fill: #181c5d } 
		.s71 { fill: #333946 } 
		.s72 { fill: #333948 } 
		.s73 { fill: #00003f } 
		.s74 { fill: #13165e } 
		.s75 { fill: #14185f } 
		.s76 { fill: #0b0d41 } 
		.s77 { fill: #3d4551 } 
		.s78 { fill: #2f3146 } 
		.s79 { fill: #0c0e58 } 
		.s80 { fill: #10125f } 
		.s81 { fill: #090b63 } 
		.s82 { fill: #292b43 } 
		.s83 { fill: #2f3145 } 
		.s84 { fill: #080952 } 
		.s85 { fill: #1a1d5d } 
		.s86 { fill: #0a0b41 } 
		.s87 { fill: #05063f } 
		.s88 { fill: #313746 } 
		.s89 { fill: #373e4f } 
		.s90 { fill: #0d0e42 } 
		.s91 { fill: #1b1f5d } 
		.s92 { fill: #323947 } 
		.s93 { fill: #13165d } 
		.s94 { fill: #05053f } 
		.s95 { fill: #303545 } 
		.s96 { fill: #191d5e } 
		.s97 { fill: #3b434f } 
		.s98 { fill: #303447 } 
		.s99 { fill: #111459 } 
		.s100 { fill: #343a48 } 
		.s101 { fill: #2e3244 } 
		.s102 { fill: #12155e } 
		.s103 { fill: #0f125d } 
		.s104 { fill: #111461 } 
		.s105 { fill: #363d4a } 
		.s106 { fill: #171b5c } 
		.s107 { fill: #040541 } 
		.s108 { fill: #15195f } 
		.s109 { fill: #13155c } 
		.s110 { fill: #1c215b } 
		.s111 { fill: #0e1041 } 
		.s112 { fill: #404751 } 
		.s113 { fill: #2f3445 } 
		.s114 { fill: #10135f } 
		.s115 { fill: #232443 } 
		.s116 { fill: #3b4350 } 
		.s117 { fill: #101142 } 
		.s118 { fill: #1c205c } 
		.s119 { fill: #3a4250 } 
		.s120 { fill: #16195f } 
		.s121 { fill: #070841 } 
		.s122 { fill: #1d215d } 
		.s123 { fill: #3e4752 } 
		.s124 { fill: #2a2c46 } 
		.s125 { fill: #373e4b } 
		.s126 { fill: #2a2c44 } 
		.s127 { fill: #3f4752 } 
		.s128 { fill: #11145c } 
		.s129 { fill: #101243 } 
		.s130 { fill: #353b48 } 
		.s131 { fill: #343a49 } 
		.s132 { fill: #0b0d42 } 
		.s133 { fill: #16195c } 
		.s134 { fill: #181c5e } 
		.s135 { fill: #3f4750 } 
		.s136 { fill: #090b41 } 
		.s137 { fill: #383f4b } 
		.s138 { fill: #39404c } 
		.s139 { fill: #070961 } 
		.s140 { fill: #414952 } 
		.s141 { fill: #0f1157 } 
		.s142 { fill: #0c0e56 } 
		.s143 { fill: #343948 } 
		.s144 { fill: #363c4a } 
		.s145 { fill: #3c434e } 
		.s146 { fill: #131659 } 
		.s147 { fill: #141654 } 
		.s148 { fill: #181c5f } 
		.s149 { fill: #0c0e45 } 
		.s150 { fill: #323648 } 
		.s151 { fill: #1c205d } 
		.s152 { fill: #11145b } 
		.s153 { fill: #0c0d40 } 
		.s154 { fill: #394353 } 
		.s155 { fill: #0b0c52 } 
		.s156 { fill: #313547 } 
		.s157 { fill: #333848 } 
		.s158 { fill: #161843 } 
		.s159 { fill: #141760 } 
		.s160 { fill: #2b2c43 } 
		.s161 { fill: #191c5e } 
		.s162 { fill: #131543 } 
		.s163 { fill: #1b1f5e } 
		.s164 { fill: #191d5c } 
		.s165 { fill: #363c4b } 
		.s166 { fill: #16195d } 
		.s167 { fill: #333748 } 
		.s168 { fill: #2e3045 } 
		.s169 { fill: #0b0d44 } 
		.s170 { fill: #262c5a } 
		.s171 { fill: #181c53 } 
		.s172 { fill: #2b2e46 } 
		.s173 { fill: #353a49 } 
		.s174 { fill: #3a4452 } 
		.s175 { fill: #161a5b } 
		.s176 { fill: #3b4451 } 
		.s177 { fill: #0e105b } 
		.s178 { fill: #39414e } 
		.s179 { fill: #384252 } 
		.s180 { fill: #12165c } 
		.s181 { fill: #353a4a } 
		.s182 { fill: #3e4652 } 
		.s183 { fill: #2f3345 } 
		.s184 { fill: #3c4551 } 
		.s185 { fill: #131660 } 
		.s186 { fill: #394250 } 
		.s187 { fill: #161a5c } 
		.s188 { fill: #0e1043 } 
		.s189 { fill: #161a5e } 
		.s190 { fill: #0d0f41 } 
		.s191 { fill: #171a44 } 
		.s192 { fill: #0f115c } 
		.s193 { fill: #151845 } 
		.s194 { fill: #14175f } 
		.s195 { fill: #16195e } 
		.s196 { fill: #3b424d } 
		.s197 { fill: #141744 } 
		.s198 { fill: #1f245b } 
		.s199 { fill: #0d0f5b } 
		.s200 { fill: #242848 } 
		.s201 { fill: #0e0f41 } 
		.s202 { fill: #151857 } 
		.s203 { fill: #3d444e } 
		.s204 { fill: #101242 } 
		.s205 { fill: #3c424e } 
		.s206 { fill: #363e4e } 
		.s207 { fill: #16195b } 
		.s208 { fill: #3d454f } 
		.s209 { fill: #313545 } 
		.s210 { fill: #141745 } 
		.s211 { fill: #15195d } 
		.s212 { fill: #111344 } 
		.s213 { fill: #383e4b } 
		.s214 { fill: #0a0c5f } 
		.s215 { fill: #13165c } 
		.s216 { fill: #373e4a } 
		.s217 { fill: #3b414e } 
		.s218 { fill: #1c2059 } 
		.s219 { fill: #08094b } 
		.s220 { fill: #313447 } 
		.s221 { fill: #0f1252 } 
		.s222 { fill: #12145c } 
		.s223 { fill: #151642 } 
		.s224 { fill: #14175c } 
		.s225 { fill: #1b2059 } 
		.s226 { fill: #131550 } 
		.s227 { fill: #23285a } 
		.s228 { fill: #3d4652 } 
		.s229 { fill: #2f3244 } 
		.s230 { fill: #363d49 } 
		.s231 { fill: #10135c } 
		.s232 { fill: #111354 } 
		.s233 { fill: #161959 } 
		.s234 { fill: #383d4b } 
		.s235 { fill: #14185c } 
	</style>
	<path fill-rule="evenodd" class="s0" d="m560 24l46 1 40 3 32 4 22 5 40 11 26 9 29 12 29 14 33 17 21 12 16 11 34 28 14 12 17 16 27 27 9 11 9 10 13 17 11 15 10 15 11 18 15 28 12 24 13 29 9 24 9 32 7 29 7 42 3 38v71l-3 35-6 40-10 42-10 32-12 30-11 24-12 24-7 12-6 12-12 20-21 28-33 39-28 28-8 7-14 12-16 13-14 11-33 22-17 10-18 10-33 16-26 11-25 9-21 7-36 9-37 6-29 3-16 1-52 1-27-1-31-3-41-7-26-6-24-7-26-9-24-10-33-15-21-11-17-10-15-10-16-11-19-14-16-13-10-8-10-9-14-14-8-7-12-13-14-15-11-14-10-13-14-20-12-18-8-13-10-18-8-15-12-26-10-26-9-25-7-23-9-38-6-36-3-36-1-26v-24l1-29 4-39 5-28 7-30 9-29 10-28 10-24 12-25 16-31 15-24 12-17 9-12 10-13 13-16 12-14 29-29 8-7 10-9 14-11 16-13 19-13 10-7 18-11 24-13 19-10 25-12 24-9 43-14 24-6 36-6 33-4 12-1zm-15 39l-38 4-26 4-27 6-28 8-30 10-22 9-23 10-19 10-15 8-17 11-15 10-19 14-17 14-11 9-13 12-3 2v2l-4 2-14 15-8 8-7 8-12 14-10 13-13 18-11 17-12 19-11 20-15 33-9 23-11 33-7 27-7 33-3 19-2 21-1 18v53l2 32 4 28 7 33 9 34 8 24 13 31 8 18 12 22 9 16 12 19 8 12 13 17 14 17 11 12 4 5h2l2 4 23 23 8 7 10 9 11 9 13 10 19 14 20 13 21 12 23 12 19 9 23 9 36 12 30 8 32 6 31 4 26 2h61l38-4 34-6 36-9 25-8 20-7 28-12 17-8 23-13 20-12 19-13 15-11 16-13 14-12 12-11 24-24 7-8 12-14 13-17 12-16 12-18 12-19 12-22 11-22 10-25 14-40 9-34 8-42 4-37v-61l-2-26-6-37-7-33-7-24-10-30-9-22-12-25-10-21-10-17-26-39-14-18-11-13-12-14-11-11-7-8-8-7-11-10-14-11-16-13-14-10-20-14-22-13-26-14-29-13-26-10-31-10-32-8-27-5-32-4-28-2z"/>
	<path class="s1" d="m690 768h30l16 3 8 6 7 14 2 12 1 16 3 10 4 5 10 5 9 2 20 1 10 3 8 8 5 10 3 15v17l-3 17-4 9-9 14-9 10-14 11-13 8-16 7-12 5-12 20-8 10-8 7-11 7-13 5-8 2h-15l-11-4-6-5-5-9-1-4v-12l4-11 9-8 10-5 24-8 28-13 11-7 4-5 5-12 2-7v-17l-3-12-7-13-10-10-12-7-15-5-19-3-12 2-9 5-6 9-3 11v14l4 9 4 5 6 3h8l8-4 5-4 5-10 4-9 6-6h7l7 4 3 5 1 7-2 20-3 11-7 10-8 8-9 4-6 1h-13l-16-4-9-4-11-6-10-9-8-11-5-12-2-6-1-8v-15l2-15 5-16 9-20 6-10 13-15 12-10 11-7 12-6z"/>
	<path class="s1" d="m240 337h18l14 3 13 5 9 8 4 9 2 8v11l-1 6v12l3 10 4 6 8 5 6 2 15 3 18 10 5 7 2 11-2 18-4 21-6 15-8 11-11 11-11 8-19 10-21 6-14 3h-26l-16-4-16-8-10-9-8-10-7-15-3-13-1-14 3-16 4-8 4-5 9-6 13-4 20-1 10 2 8 5 4 6v6l-6 7-16 6-12 6-4 7v9l4 8 8 7 5 2h18l10-4 8-7 4-6 3-11v-12l-2-16-4-12-6-11-9-10-7-5-13-5-5-1h-21l-9 2-9 6-10 11-9 15-8 16-6 10-10 13-11 7-12 2-10-3-8-6-6-7-2-5v-16l5-16 7-12 8-8 15-10 10-5 16-6 5-5 8-14 11-14 6-7 16-12 12-7 12-4z"/>
	<path class="s1" d="m882 591h27l17 4 13 7 11 9 8 11 6 12 3 11 1 7v16l-4 12-7 9-7 6-10 4-16 2h-13l-9-3-6-7v-9l4-6 5-2 11-2 6-3 8-9 1-2v-11l-3-7-6-5-7-2h-18l-12 4-6 4-6 10-1 4v19l4 17 5 12 6 10 6 7 11 7 11 4 5 1h17l10-3 10-6 3-1 2-4 8-11 14-27 6-14 7-11 9-8 10-4h7l11 3 9 6 5 8 1 4v17l-4 13-5 10-8 10-7 7-10 6-24 12-7 11-8 16-8 11-11 11-15 10-14 7-17 4h-19l-19-5-9-4-6-5-4-10-1-5v-28l-2-9-6-7-12-5-23-6-13-7-9-8-2-12 2-23 3-20 4-10 7-11 14-14 17-12 21-10 17-5z"/>
	<path class="s1" d="m899 326h16l14 2 13 5 11 6 14 12 9 11 8 13 6 14 4 12 4 5 13 9 14 10 12 11 7 14 4 13 1 14-2 10-5 9-5 4-7 3h-17l-7-3-6-4-7-9-6-16-7-20-6-15-6-12-8-9-12-6-8-2h-20l-13 4-12 7-8 8-7 11-5 12-3 17v17l4 7 3 3v2l12 6 8 2h10l10-2 6-4 3-5v-11l-3-7-5-6-18-10-4-5-1-7 4-7 8-4h13l20 5 12 6 7 8 5 12 1 14-2 14-5 12-9 14-10 11-11 7-11 4-12 2h-17l-17-3-17-6-17-8-16-11-12-11-10-13-8-16-2-7-1-7v-31l1-15 3-5 15-7 14-4 23-4 10-5 3-5 2-10 1-17 3-13 4-6 8-7 8-4z"/>
	<path class="s1" d="m661 116h13l16 3 14 6 11 8 8 9 12 17 6 5 21 6 12 5 11 6 11 8 9 8 9 12 7 15 3 11 1 8v16l-2 11-6 12-8 7-17 3-15 3-10 5-4 5-4 9-1 4-2 30-4 10-7 8-8 3-19 3h-30l-14-5-20-12-10-8-9-9-11-16-6-12-8-21-3-14v-19l3-12 5-11 6-9 10-10 14-9 10-4 11-2h14l9 2 10 6 8 10 5 13 3 15v9l-3 6-6 4-6 1-6-3-6-10-6-8-9-7-6-1-11 4-6 7-2 6v13l4 11 6 9 9 6 8 2 11-1 20-6 14-8 8-7 6-8 6-11 2-8v-16l-2-14-4-11-8-8-12-6-18-6-26-6-14-4-11-7-7-10-3-13 1-10 4-7 5-5 6-4z"/>
	<path class="s1" d="m463 115h13l10 3 7 6 6 12v11l-4 11-7 8-10 6-16 6-18 6-18 8-11 6-6 8-4 7-3 11v15l3 15 6 12 8 9 10 7 11 5 16 4 16 1 10-2 7-5 7-12 2-7v-13l-2-8-4-7-7-3h-8l-8 3-5 5-6 9-6 10-5 5h-7l-8-7-1-4v-18l3-14 4-9 6-8 8-6 8-3h24l12 3 14 7 12 11 8 10 5 11 3 10 1 7v23l-4 18-9 21-7 12-8 10-6 7-11 9-16 10-14 5-6 1h-32l-12-2-6-3-8-9-4-11-2-17-2-14-2-10-10-3-16-3-16-1-10-4-10-9-4-10-3-16v-16l3-15 5-12 7-11 4-5 8-7 14-11 19-10 20-9 4-4 4-10 7-10 6-7 12-9 12-6 11-3z"/>
	<path class="s1" d="m425 768l33 1 14 3 16 8 10 8 10 9 9 11 8 14 6 13 6 17 3 17v12l-2 14-5 14-7 10-12 12-10 6-12 5-15 3h-13l-9-2-9-6-9-11-4-11-1-6v-24l3-6 4-3h8l7 6 9 16 8 8 4 2h10l6-4 5-7 2-13-2-13-4-9-6-7-8-4-4-1h-11l-16 4-13 5-11 6-10 8-7 11-3 9-1 5v20l3 12 4 8 4 5 15 8 26 11 18 6 11 4 6 4 7 10 3 12-1 10-4 8-6 7-7 3-5 1h-12l-12-3-21-10-9-7-8-10-9-15-6-8-12-5-12-4-14-8-11-9-13-13-9-14-5-12-2-10v-19l2-13 4-11 6-8 4-3 7-2 28-2 9-3 6-4 4-8 2-8 3-27 5-10 6-7 10-5z"/>
	<path class="s1" d="m241 587h21l21 4 20 7 15 8 13 10 12 12 9 13 5 11 2 9 2 26v12l-3 9-6 7-14 7-13 3-16 4-8 5-4 6-2 7-1 31-4 11-4 5-17 8-14 3h-15l-17-3-13-5-11-7-13-11-11-14-9-15-6-12-5-5-11-6-17-9-12-11-7-10-5-12-3-12v-18l4-8 7-6 7-3 5-1h11l12 6 8 9 8 16 12 27 8 14 7 9 10 6 16 3 17-1 14-5 11-8 6-7 7-12 5-17 2-14v-8l-3-12-6-8-10-5-10-2-14 1-10 4-5 6-1 3v9l4 8 8 7 8 3 11 4 3 4 1 4-2 6-3 5-7 4-14 1-14-2-12-4-9-6-7-9-4-13v-14l3-16 5-12 7-10 6-7 13-10 11-4z"/>
	<path class="s2" d="m565 495h12l18 3 11 4 12 7 10 9 8 8 6 10 5 16 2 10 1 14-2 14-5 15-6 10-9 10-9 8-14 8-15 5-6 1h-24l-15-5-16-8-10-8-8-9-6-10-5-13-3-13v-21l3-12 8-17 11-14 11-10 16-8 11-3z"/>
	<path class="s3" d="m740 437h8l3 2 2 13 3 19 5 16 8 13 12 14 9 9 5 8 1 3v13l-3 8h-8l-36-6-46-9-13-5-6-8v-6l6-12 9-15 13-22 14-24 6-8z"/>
	<path class="s3" d="m402 431l8 1 8 9 10 18 8 16 20 39 2 6v10l-7 6-9 3-32 6-34 5h-16l-9-3-6-7 1-5 4-2v-2l8-7 11-11 6-10 6-16 5-19 4-20 4-10z"/>
	<path class="s3" d="m610 349l4 2 11 13 11 11 11 7 12 5 15 4 25 4 10 4 6 5 3 6-1 6-5 6-13 8-25 13-22 12-16 8-6 2h-7l-8-4-3-5-4-22-8-58v-11l4-8 5-6z"/>
	<path class="s3" d="m524 678l8 2 6 4 4 5 1 11 2 61v22l-11 11-4-1-6-7-8-11-11-12-13-8-16-6-25-6-10-6-8-8-2-4 1-5 8-7 20-9 26-11 34-14z"/>
	<path class="s3" d="m625 672l8 2 16 8 26 15 18 11 15 11 5 5 1 8-5 10h-27l-15 4-11 5-9 6-10 9-10 10-9 6-4 2h-14l-4-2v-16l4-25 10-49 4-11 6-7z"/>
	<path class="s3" d="m537 353l7 1 5 5 3 5-1 13-12 54-5 18-7 14-3 3-8-1-12-5-11-7-16-10-28-17-10-8-4-5-3-5v-7l1-3 3-2 27-1 14-3 10-4 11-7 11-9 12-11 9-6z"/>
	<path class="s3" d="m754 592h36l9 4 2 2-1 5-9 10-13 12-7 8-6 10-6 17-5 22-4 9-4 6-8 7-6 1-6-4-8-16-15-33-13-29-2-6v-12l3-6 7-2 40-4z"/>
	<path class="s3" d="m351 590h11l38 6 26 5 22 6 8 4 5 5 1 7-4 9-8 13-8 14-13 21-10 15-8 10-4 4-5-1-6-5-3-8-1-20-4-13-6-12-7-10-9-11-8-8-5-8-3-8v-10z"/>
	<path class="s3" d="m569 883l4 2 13 18 16 23 14 22 7 10 8 15 2 7v7l-3 7-7 6-7-1-9-7-16-16-12-17-5-8-3 1-10 16-10 14-12 14-10 8-7-3-6-7-3-9 2-8 7-14 14-24 15-25 16-27z"/>
	<path class="s3" d="m526 142l8 1 10 9 10 13 9 15 8 12 3 1 2-4 7-10 10-13 9-10 9-9 3-2h9l6 4 3 4 1 8-5 14-10 17-13 18-10 16-14 20-9 10h-4l-7-10-14-23-12-19-13-20-7-13-2-14 2-9 5-4z"/>
	<path class="s3" d="m875 225h8l12 4 9 7 5 5 6 7 6 12 2 11-1 11-4 7-9 6-13 5-8 2-12 1-12-2-10-5-5-6-1-4v-11l4-20 7-17 9-10z"/>
	<path class="s3" d="m253 225h10l7 4 9 8 10 15 5 14 1 7v10l-3 5-8 5-11 4-16 3h-15l-11-3-6-4-5-6-1-3v-18l4-12 6-11 9-10 9-6z"/>
	<path class="s4" d="m877 841h14l16 2 10 4 7 8 3 7v15l-4 10-6 9-6 7-10 7-13 5h-11l-8-5-7-9-6-14-4-17v-14l3-7 5-4 9-3z"/>
	<path class="s3" d="m261 838h8l11 2 8 5 3 6 1 10-2 21-4 13-4 8-5 6-10 5h-10l-12-4-9-7-8-9-8-16-2-7v-9l4-10 9-6 18-6z"/>
	<path class="s5" d="m1015 524l7 4 2 3v6l-8 10-11 8-11 7-8 7 6 8 9 8 9 7 7 6 4 7v8l-2 4-3 2-6-1-19-10-19-12-16-11-17-13-6-4 3-3 25-14 14-8 25-13z"/>
	<path class="s4" d="m127 525l8 1 21 11 20 12 26 17 7 3v3l-15 8-39 26-16 10-5 2h-5l-8-8-1-6 7-7 10-8 15-13 6-6v-3l-23-13-10-9-6-8-1-5 4-5z"/>
	<path class="s6" d="m86 823l5 1 3 5 1 6 4 2 2 5 5 7v2l3 1 3 5 2 5 6 12 1 1 4 5 4 6 3 4v2h2v3l7 2 7 9 4 4v3h2l3 6v2h2l7 8 3 3v2h2l3 9 12 13 5 4 8 8v2l4 2v2l4 2 10 8 5 5 11 10 2 1v2l5 2 1 3 4 2 9 7 3 1v2h2v2l4 1 10 7 13 8 8 5 14 7 10 6 12 6v2l6 1 16 8 7 3 1 2 6 1 4 4v2l-9-3-35-16-21-11-17-10-15-10-16-11-19-14-16-13-10-8-10-9-14-14-8-7-12-13-14-15-11-14-10-13-14-20-12-18-8-13-10-18-4-7z"/>
	<path class="s3" d="m875 853l9 1 4-1 3 3 3-1 1 1 4-1 4 3 4-1v2l3-1 3 3v4l2 1-1 5-1 7-5 7-1 4-2 2-2 5-2 1-2 5-6 3-4-1h-3l-10-4-3-3h-2l-4-8-4-7-2-3-1-10 2-9 3-3 1-2z"/>
	<path fill-rule="evenodd" class="s7" d="m253 225h10l7 4 9 8 10 15 5 14 1 7v10l-3 5-8 5-11 4-16 3h-15l-11-3-6-4-5-6-1-3v-18l4-12 6-11 9-10 9-6zm-2 13l-7 2v2h-2v2h-3v2l-3 1-2 4-3 3-4 16v11l4 5 8 5 8 2h17l16-8 3-6v-11l-2-7v-4l-2-4v-3h-2l-2-4-5-3-2-3-5-2z"/>
	<path class="s8" d="m816 743h14l6 4 5 9 2 9v14l-3 9-6 6-8 1-8-4-7-7-7-11-2-6v-12l5-8z"/>
	<path class="s8" d="m81 391l2 3 1 6-3 12-5 13-2 12-1 2-2 28-3 14-1 11-2 10-4 22-2 5 1 15-2 9h-2l1 6 1 10 1 21v13l-3 8h2v5h-4l-1-2 1-3-1-19-1-1-2-13 2-7-1-4 3-5 1-30v-28l1-4-1-1 1-10h-4v-13l2-3 2-7 9-18v-9l1-1-1-7-3-3 1-4 3-3 3-7 6-10 2-2 2-9z"/>
	<path class="s9" d="m569 994h9l6 4 6 9 2 8v12l-3 10-6 8-4 3-9 2-7-4-6-9-3-12v-10l4-11 7-8z"/>
	<path class="s4" d="m569 96h8l6 3 6 8 2 9v11l-3 10-6 9-6 4h-8l-8-6-4-5-2-6v-19l3-10 4-5z"/>
	<path class="s10" d="m320 743h8l7 3 5 5 3 4 1 9-5 12-7 10-9 7-4 2-7-1-6-5-3-7v-22l3-9 6-5z"/>
	<path class="s11" d="m261 838h8l11 2 8 5 3 6 1 10-2 21-4 13-4 8-5 6-7 4h-5v-4h2v-2l-4 1-1-4h2v2h2l-1-4 4-1h-1-5l4-5 4-1 2-4 1-1 4-2 1-10 1-3h3l-3-3 2-6-2-4h2l-1-4h-2l-1-5-5-2-4-2h-5l-4 1-6 1v2l-7-1-7 1-3 1-1 2-3 1-3 4v3l-4 1 1 3h-2l1 3v4l2 7-2 3-2-6-2 3-3-7-1-4v-9l4-10 9-6 18-6z"/>
	<path class="s12" d="m778 787h9l13 4 8 6 6 8 2 6-1 6-5 5-17 5h-13l-8-3-5-5-2-6v-12l3-8 6-5z"/>
	<path class="s13" d="m786 313h7l12 3 8 5 2 3v8l-4 8-13 9-10 4-7 1-9-4-6-7-2-6v-11l3-5 8-5z"/>
	<path class="s10" d="m360 786h7l6 3 5 6 2 5v14l-4 6-6 4-7 2-16-1-10-3-5-5-2-9 3-7 5-5 9-6z"/>
	<path class="s14" d="m321 338l7 1 8 7 8 14 3 9v8l-4 6-13 8-7 1-5-3-4-5-4-10-2-8v-11l4-10 7-6z"/>
	<path class="s15" d="m827 343l9 2 6 7 2 9-1 22-4 4-9 3h-15l-8-4-2-3-1-5v-7l4-12 6-9 6-5z"/>
	<path class="s13" d="m356 312h11l7 3 5 5 3 5v13l-3 8-7 6h-10l-17-8-7-8-3-7 1-8 5-6 5-2z"/>
	<path class="s16" d="m754 592h36l9 4 2 2-1 5-9 10-6 5-5-2 2-8-3-5-6-1-22-1-7-1-9 1h-17l-6 2-16 2-4 2v14l2 7h-2l-4-11v-12l3-6 7-2 40-4z"/>
	<path class="s17" d="m1015 524l7 4 2 3v6l-8 10-11 8-11 7-5 2h-3l-3-1-2-4-6-2-2 1v-5h2v-2h2v-2l6-1v-4l3-1h-4v2l-5 2-4-1v-2l27-14z"/>
	<path class="s18" d="m614 145h9l6 4 3 4 1 8-1 4-5 2-2 4-3 1v-2l-3 1v-2h2l-1-2-3 2 1 2h-2v3l3 1-3 1v3l-2 2 2 2-4 2-2 2-3-3 1-4 3-2 2-4-1-3-2-1v3l-3 1-1 2-4 1h2v3l-5 1v4l1 4-2-1-1-1-2 1-1-1-2 3h-2l-1 2h-3l-1-2h3l-2-9 3-4 3-7 8-10 10-10 1-3z"/>
	<path class="s19" d="m351 590h11l38 6 26 5 22 6 8 4 5 5 1 7-4 9-7 10-1-2 1-3-2-1v-8l2-5v-3l-8-4v-2l-4-2-1-1v-5l-7-1-24-5-6-1h-12l-1-3-4 4h-22l-2 7 1 11h2l1 4 4 6 7 8h-3l-11-12-7-9-4-10v-10z"/>
	<path class="s20" d="m793 69l9 3 40 20 22 12 17 10 17 12 14 12 16 13 14 12 17 16 25 25-2 1 2 6-5-5 2 4 2 5 4 2 8 11h-3l-8-10v-2l-3-1-6-9-6-8v-2l-30-30-3-2v-2h-3l-10-10v-2l-6-2-13-10-9-7-7-5-5-5-15-10-13-8-7-3-13-7-10-6-7-2v-2l-4-1-10-5-9-5z"/>
	<path class="s21" d="m560 24l46 1 11 1v1h-68l-12 1-4 2-33 3-12 2-14 2-24 5-10 2-14 4-7 3-12 3-27 9-17 6-8 3-13 6h-6l4-3 26-12 25-9 37-12 24-6 36-6 33-4 12-1z"/>
	<path class="s22" d="m101 556h9l7 4 4 7v6l-6 8-5 3-6 2-9-1-7-4-4-5-1-10 8-7z"/>
	<path class="s22" d="m1036 557h11l9 5 3 4v9l-6 7-7 2h-13l-8-4-5-6 1-7 6-6z"/>
	<path class="s23" d="m1054 839l3 2-10 19-12 20-21 28-33 39-28 28-8 7-1-4 4-2 1-3h2l2-4h2l2-4h2l2-4 4-4h2l2-6 4-4 2-3h2l2-4 4-4h2l1-4h2l2-4 5-6 8-7 4-6 10-14 4-8 3-3 5-10h3l1-5 4-2v-3h2l2-5 5-9 1-2h3l2-5z"/>
	<path class="s24" d="m875 225h8l1 2h-9v2l14 4 5 1v2l5 1 8 6 2 5h2l3 5-1 3h-2v-2h-2v2l-2-1-1-3 1-2h-2l-1 3-4-4-4-1-5-2-5-1h-3-2v-2h-8l-2-1-2 7-2-1-2 3v2l-4 2v6l-4 4v2h-2l1 6h-2l-1-4 1-9 4-11 3-9-1-3 7-8z"/>
	<path class="s25" d="m143 556l4 1 3 1v2l4-2 2 2v3h6l4 3 4-1 3 2v2h2v4l2-2 1 4h-2l1 3-7 3v2l-2 1-3 5-4 3-3 3-4 1-3 5h-4l-1 3h-4-1-3l-1 2-2-3v-5l17-17-1-4 7-7v-3l-16-9z"/>
	<path class="s26" d="m990 580l1 4h2l-1-3h4l13 10 8 7 4 7v8l-2 4-3 2-6-1-11-6 1-2-10-6v-3h2l-1-2h-3v-13z"/>
	<path class="s27" d="m379 1083l13 4 6 4 5 1 17 5 5 2 4 1 10 3 8 2 7 1 3 1h5l3 1 7 1 4 2h9l2 1 25 3 18 1 20 3v1l-5 1v1h-14l-31-3-41-7-26-6-24-7-26-9-10-4 2-2z"/>
	<path class="s28" d="m233 338h20l5 1-1 5-3 1-17 1-12 4-11 6-17 11-6 4-14 7-2 4-4 2 6-9 11-13 16-12 12-7 12-4z"/>
	<path class="s29" d="m331 84l1 2-3 5-17 9-6 4-10 4-8 7-24 16-10 7-4 2h-3l-1-3 9-7 10-7h2l2-5 3-3 4-2 5-6 21-12 16-9 4 1z"/>
	<path class="s30" d="m859 869l2 2 2 10 2 2 3 6v2l2 1 3 3v2l3 1v2h5l1 2 5 1h1l6 1 3-1 2-4h2l-1-3 3-1 2-6 2-2 2-6 1-2h2l1 3-2 7-1 2h-2l1 3-3 3h-2l-1 5-5 3-2 3-6 2 4 3-6 2h-11l-8-5-7-9-6-14-1-6 2-5 2-1-1-4z"/>
	<path class="s31" d="m231 143v3l-10 10h-2l-2 4-7 6-7 8-12 11-2 1v2l-8 7-9 9-1 2h-2l-2 4-6 7-2 2-3 5-5 4-7 9-10 14-10 13-5 3-2-1 13-18 14-18 13-16 12-14 29-29 8-7 10-9 14-11z"/>
	<path class="s32" d="m439 485h2l15 29 2 6v10l-7 6-9 3-9 2h-9l1-2-5 1 3-3 1-3 9-2 1-2 3-1 10-5-1-9-2-7-3-6v-3h-2l-2-10z"/>
	<path class="s33" d="m290 851h1l1 10-2 21-4 13-4 8-5 6-7 4h-5v-4h2v-2l-4 1-1-4h2v2h2l-1-4 4-1h-1-5l4-5 4-1 2-4 1-1 4-2 1-10 1-3h3l-3-3 2-6v-2l3-1 1 1v-9l4-1z"/>
	<path class="s28" d="m861 997l2 2-2 5-11 7-10 8-11 9-10 4-7 5-15 5h-3l-1-4 6-6 28-15 26-16 4-3z"/>
	<path class="s21" d="m1083 362l3 4 10 26 6 19 9 34 4 19 6 36 2 22v8h-1l-2-8-1-20-2-2-2-9-2-16-2-8-2-12-4-19 1-2h-2l-12-36-6-15-2-7-1-9 1-2h-2z"/>
	<path class="s34" d="m587 105l2 2 2 9v11l-3 10-6 9-6 4h-8l-8-6-4-5 2-4 3 1v-17l1-2h6l1 1 1 7 1 2h2v-2l4-2 1 7-2 6-3 2 1 6 5-2-2-2 7-3 3-11 1-6-1-1z"/>
	<path class="s35" d="m402 431l8 1 8 9 10 18 8 16-1 6-4-3-2-8h-2l-2-5-3-3-2-6-2-4v-2l-5-1v-2l-4-1v-2h-2l-1 3h-3v2h-2v-2h-2v3l-5 3-2 1-1 7-2 1v-11l5-13z"/>
	<path class="s8" d="m562 499h14l16 4-1 2-4 1h-10l-10 2-17 7-17 6-6 2-3-3 1-4 4-4 9-4v-2l9-2z"/>
	<path class="s36" d="m625 672l8 2 16 8 26 15 18 11 15 11 5 5-1 4-4 3h-2v-3l-6-2-2-7-2-4v-2l-13-8-12-7-11-7-12-5-11-2-1-1-12-2-1 2-2-1-1 4-1 2h-2l-1 3-4-1 1-7 4-6 5-4z"/>
	<path class="s37" d="m899 326h16l3 3 9 2 1 4-1 1h-16l-22 3-12 4-9 2-2-1 7-8 9-6 10-3z"/>
	<path class="s8" d="m788 326h15l5 1 1 5-4 6-5 3-10 4-5 1-6 1-5-4-1-6 5-4 8-4z"/>
	<path class="s38" d="m245 841l6 1-1 6 4 1v4l-7-1-7 1-3 1-1 2-3 1-3 4v3l-4 1 1 3h-2l1 3v4l2 7-2 3-2-6-2 3-3-7-1-4v-9l4-10 9-6z"/>
	<path class="s39" d="m816 743h14l6 4 5 9 2 9v14l-3 9-5 4-1-3 2-9-2-7-2-10-2-9-9-5-10 1-4-3z"/>
	<path class="s40" d="m838 348l4 4 2 9-1 9h-1l-1-5-3 9-4 3-9 1-3-9 1-3-2-10 7-5z"/>
	<path class="s41" d="m730 1098l4 1-3 3-31 8-25 5-36 5-13 1h-15v-1l7-1v-1l33-4 12-3 14-1 8-3 12-1 7-3 10-1 8-3z"/>
	<path class="s42" d="m916 405h4v2l-13 4-12 7-8 8-7 11-5 12-3 17-2 2-2-4-2-3v-11l11-22 9-10 4-2 6-7 10-3z"/>
	<path class="s43" d="m359 1037l9 3 25 10 36 12 30 8 20 4v1h-15l-17-3-27-7-31-11-6-3-8-3-14-7-3-3z"/>
	<path class="s40" d="m337 224h2l-2 10-1 32-3 3-7 2v7l-2-1-2-9v-10h2v-9l3-9 1-2h2l1-6 4-6z"/>
	<path class="s44" d="m560 24l46 1 11 1v1h-68l-12 1-4 2-33 3-12 2-14 2-6 1h-15l-3 2-14 1 4-2 23-5 39-6 31-3z"/>
	<path class="s24" d="m698 597h5v1h13l25-1h10l5 1 7-1 10 2 9 1 4 3v7 2l3 3-4 3-5-2 2-8-3-5-6-1-22-1-7-1-9 1h-17l-6 2-16 2-4 2v14l2 7h-2l-4-11v-12l3-6z"/>
	<path class="s45" d="m366 516h6l-2 6-1 5-3 1v2h-2l-1 3-2 7v2l6 2h2v3l7 1v2h-16l-9-3-6-7 1-5 4-2v-2l8-7z"/>
	<path class="s46" d="m684 706l4 1 9 6 1 4 2 3 1 5 1 2 4 1v3l6-4h2l-1 8-4 7h-7l-16-2 2-4-2-1 6-2 1-3 2-2-1-7h-3l-2-4-3-2v-2l-2-1-1-5z"/>
	<path class="s8" d="m1047 830h2v6l-1 4h-2l-1 5-4 5h-2l-2 6-6 10-1 2h-2l-3 9-2 3h-2l-1 6-4 2v2h-2v2h-2l-2 4-4 2-1-4 5-5 6-12 5-8 3-2v-3h3l2-4 3-8 3-6h2l1-5 3-4 3-5z"/>
	<path class="s47" d="m870 682l2 3 2 7 4 10 1 2 3 1 7 11 8 7 8 5-1 5-3 1-8-4-11-8-7-10-4-9-4-15 1-4z"/>
	<path class="s34" d="m574 1000l12 6-1 2 4 2 2-1 1 5v12l-3 10-2-2 1-13-1-4h2v-3h-2l-5-5-3-2 1 5-1 4-5 5-5 1-1 2-5-1-1-7 1-11 4-3z"/>
	<path class="s48" d="m614 62h10l3 1v2l16-2 7 2 1 1 4 1h3l10 2 1 1 9-1 9 3 10 1 3 1v2h8l7 3 23 7 6 2 1 2 2 1-4 1-28-9-32-8-27-5-32-4-28-2v-1z"/>
	<path class="s22" d="m912 258l5 1 2 8 2-4 1 1 1 13-3 9-5 5-8 5-14 5h-8l1-2 7-1v-2l10-2 2-5 3-3 2-1 1-13 2-2-1-9-2-1h2z"/>
	<path class="s49" d="m1010 239l8 6 12 17 15 23 10 18 1 3-3 3-6-10-4-4v-3l-4-4-4-6-3-5-2-3v-3h-2l-4-6v-3l-3-1-3-6v-3h-2l-2-4-3-4-2-4z"/>
	<path class="s50" d="m49 407l2 1-1 5-1 2-1 7-3 11-5 25-3 13v5l-2 4-2 20-2 8-2 19h-3v-9l4-33 5-27 8-32z"/>
	<path class="s51" d="m617 952h2l9 15 4 9 1 4v7l-3 7-7 6-7-1-9-7-3-4 4 2 6 5 2-4 5-6 1-6h2v-2h3v-2l-4-2-2-4 1-8-5-7z"/>
	<path class="s24" d="m740 437h8l3 2 2 13v11l-1-4-6-1v-2l-2-1v-3h-12l-10 5 2-6 8-11z"/>
	<path class="s52" d="m617 27h18l43 5 22 5 40 11 3 2-8-1-6-2-19-3-7-2-19-3-34-7-22-2-11-2z"/>
	<path class="s34" d="m253 229l5 2 1 2 9 3 6 5 1 4h2l2 5h-2l-4-5-4-2-2-2-4-2h-12l-7 1v2h-2v2h-3v2l-2 2-5 6-1 6-2 1-2-2 2-6-3 4v3h-2l-2 4-1-5 8-16 9-10 4-2-6 7-2 2 1 3h2v-2h2v-2h2v-2l6-3 2 1 1-3z"/>
	<path class="s53" d="m332 365l5 1 4 4 1 6-1 3-6 4-5 2-2 2h-7v2l-4-1-4-6 1-3 4 4 2-12 8-3z"/>
	<path class="s25" d="m948 558l4 1v3l1 4-3 6 6 1h3l2 5h3v2l-3 1h-1l1 3v2h3l5 5 6 4 2-1 2 4 11 7-2 1-16-10-16-11-17-13-6-4 3-3z"/>
	<path class="s54" d="m793 69l9 3 40 20 22 12 17 10 17 12 6 5-2 2-12-9-5-1-14-10-13-8-16-8-14-8-6-3-4-1v-2l-4-1-10-5-9-5z"/>
	<path class="s25" d="m526 142l8 1 10 9 4 5-1 2h-2v-3h-3v-2l-12 3h-7l-2 5-3 1-1-2-4-1 1-10 4-5z"/>
	<path class="s17" d="m998 585l5 1 14 12 4 7v8l-2 4-5-2-3-2v-3l-7-1 1-3h-2v-2l-2-1 2-1-1-4-4-3v-3h-2l-1-4 3 1h3z"/>
	<path class="s33" d="m780 515l4 2 8 9 4 8v13l-3 8h-8l-9-2v-1l7-2 4-6-2-9-3-4 1-8-3-5z"/>
	<path class="s55" d="m614 145h9l6 4 3 4 1 8-1 4-5 2-2 4-3 1v-2l-3 1v-2h2l-2-6 1-5h-2l-5 2-1 2-1-4 1-5 1-4h-2v-2z"/>
	<path class="s24" d="m1000 534l4 3-6 1-5 5-7 5-1 2-2 1-1 2 2 1 2-4 9-1v2l-4 3h-2l1 3 6 1 1 2-4 3-4 1h-3l-3-1-2-4-6-2-2 1v-5h2v-2h2v-2l6-1v-4l3-1h-4v2l-5 2-4-1v-2l15-8 4 2z"/>
	<path class="s56" d="m401 253l4 1 6 12 8 9 10 7 3 2 1 4-1 1-7-1-9-4-7-6-6-9-2-11z"/>
	<path class="s57" d="m818 874h5l1 5 1 24-4 15-2 2-2-5-4-2 1-10 3-12 1-11z"/>
	<path class="s55" d="m681 394h14l12 4 8 6 3 6-1 6-5 6-13 8-4 2-3-1 5-3 4-6 5-3 3-9-2-3-5-2v-2h-2l-1-4-4-2-14-2z"/>
	<path class="s58" d="m209 931l4 2 13 13 8 7 10 9 11 9 13 10 7 5-4 1v-2l-4-1-7-3-7-5v-2l-5-2-8-6-5-5-7-6-5-5-2-4h-2l-3-6-7-7z"/>
	<path class="s59" d="m154 865l5 5 12 16 14 17 11 12 9 10 1 2h-8l-2-1v-3l-4-1-1-3-2-1-1-4-2 1v-2h-2l-3-8-7-8v-2l-3-1-7-11-7-10-3-4z"/>
	<path class="s23" d="m684 39l10 1 9 1 11 3 15 2 9 3 11 2 27 10 17 7 1 3-7-1-9-4-13-4-3-2-10-3-15-5-21-5-32-7z"/>
	<path class="s60" d="m541 715h2l1 15 1 31v22l-11 11-4-1-1-3h6v-10h2v-8h2l2-16v-36l-1-3z"/>
	<path class="s18" d="m537 755l2 4-1 5-1 4 1 3-1 9h-2l1 8-1 3h-7l-9-12-9-11-6-7 4 2 7 7 2 3 1-3 7 1-1 3 4 3 5-1 1-2-2-2 2-2 1-12z"/>
	<path class="s61" d="m841 397h6l-3 2-20 6-13 5-8 6-6 8-1-2h-2l-2-4v-5l8-5 12-5 11-3z"/>
	<path class="s43" d="m565 495h12l18 3 7 2 1 3-11-1-7-3h-11l-12 1-15 5-7 2-4 3-9 3 1-4 9-6 12-5z"/>
	<path class="s62" d="m569 883l4 2 13 18-1 3-3-1v-2l-6-1-9 2v-2h-3l-2 4v-4l-3 1 2-6 6-10z"/>
	<path class="s63" d="m850 270h1l1 8 2 1v2l3 1 1 5 2 4 6 2 2 2 1 2 3 1 4 2 1-2h6l1 3-8 2-12-2-10-5-5-6-1-4v-11z"/>
	<path class="s19" d="m546 975l7 2-1 4-9 10-7 8-7 5-7-3-4-4 1-3 4 4 4 2v-3h2l1-5h2v-3l4-3 2-3v-2l5-2z"/>
	<path class="s64" d="m884 226l6 1 8 4 10 8 9 12 4 9-1 8-2-2-1-7-7-1-1-4h2v2l2-1-2-7h-2l-6-7-6-4-10-4-13-3 1-3z"/>
	<path class="s24" d="m394 686l5 2v2l2 1 3 3 8-3h5l-2 5-4 5-1 5-3 3-5-1-6-5-2-5z"/>
	<path class="s8" d="m955 728l3 1v2l-7 4-5 5-8 3h-13l-10-4-3-3 6-1 21-1 13-4z"/>
	<path class="s65" d="m442 607l9 1 6 4 4 4 1 7-4 9-7 10-1-2 1-3-2-1v-8l2-5-2-7h2l-3-5-3-1v-2z"/>
	<path class="s30" d="m718 682l3 4v2l4 1v3l1-2h2v2h10l1-2 4 1v-2l2 1 3 2-1 4-7 7-5 2-5-1-5-5-7-14z"/>
	<path class="s47" d="m161 676h2l1 5 4 1 6 13 2 8v9l-4-1-6-6-1-7-3-3-2-9z"/>
	<path class="s3" d="m562 117h6l1 1v10l1 4-2 5 2 8v3l-4 1-9-8-1-4 2-2 3 1v-17z"/>
	<path class="s48" d="m1106 435l3 2 6 27 6 36 2 22v8h-1l-2-8-1-20-2-2-2-9-2-16-2-8-2-12-4-19z"/>
	<path class="s19" d="m555 1011l3 2-1 11 2 1 1 4 2 1 1-2 3 4v2h2v2l4 1 5 3v2l-6-1-1 3 1 4-3 1-5-3-6-9-3-12v-10z"/>
	<path class="s66" d="m487 123l4 2 6 6 2 5v11l-3 8-5-1-2-4 1-6-1-11-3-4z"/>
	<path class="s36" d="m651 684l14 7 17 10 18 12 9 7 4 4-1 4-4 3h-2v-3l-6-2-2-7-2-4v-2l-13-8-12-7-11-7-9-4z"/>
	<path class="s67" d="m226 888l4 3 2 1 2 6 4 4 1-1 4-1 4 2-1 2 2 1 1-3h7l1 6-1 1 4 1-2-3 2-1 1-4 2 1v5l4-1-1 5 1 2h-10l-12-4-9-7-8-9-2-3z"/>
	<path class="s45" d="m713 671l3 3 5 1 6 7 2 1 2 3 1 2h2v-2l5-2 2-1v-3l5-1 2 4-6 3-2 3h-2v3l-8 1-2-1v-2h-2l-2 4v-5l-3-1-3-5-3-4-2-5z"/>
	<path class="s68" d="m740 541l6 2 1-2h2v2h2l2 2 5-1h3 4 5l2 2h4l1 3-2 3h-9l-33-6-2-2 4-2z"/>
	<path class="s69" d="m732 451h6l4 4 3 6-1 4-3-2-4-2-3 1-2-1-1 2h-7l-6 5-1-4 4-7 6-4z"/>
	<path class="s70" d="m32 666l4 2 2 9 1 8 3 10 1 9 4 14 4 16-1 5-2-3-7-25-9-40z"/>
	<path class="s71" d="m229 853h4l3 1v2l-3 1-3 4v3l-4 1 1 3h-2l1 3v4l2 7-2 3-2-6-2 3-3-7-1-4v-9l2-6 7 1v-2h2z"/>
	<path class="s72" d="m402 431l8 1v2l-4 1-1 7h-2l-2 5h-2v3l-5 3-2 1-1 7-2 1v-11l5-13z"/>
	<path class="s73" d="m987 921h1v7l-7 5-3 5-3 3v6l-3 2-4 2-7 7-4 1v-4l4-4 3-5 5-5h2l2-5 8-9 4-5z"/>
	<path class="s27" d="m651 163l1 2 6 2 10 4 7 2 6 2 3-1 2 1v2l6 2 4 4-19-4-16-4-10-5-3-6z"/>
	<path class="s74" d="m26 551h2l-1 49h1l1 10v19l-1 6h-1l-2-26-1-26v-24l1-7z"/>
	<path class="s75" d="m688 72l9 1 3 1v2h8l7 3 23 7 6 2 1 2 2 1-4 1-28-9-28-7-1-3z"/>
	<path class="s36" d="m698 597h5v1h12l2 4-5 1-16 2-4 2v14l2 7h-2l-4-11v-12l3-6z"/>
	<path class="s64" d="m601 763h2l4 12 8-1-2 5-1 3 5-1-3 3h-14l-4-2v-8l2-2 2 3 1-3-2-4 1-4z"/>
	<path class="s35" d="m684 706l4 1 3 2 2 5 2 2 2 4v3l2 1 2 10-1 4h-12v-2l-2-1 6-2 1-3 2-2-1-7h-3l-2-4-3-2v-2l-2-1-1-5z"/>
	<path class="s24" d="m565 233l1 3 10-3 1 9-2 1-1 6-1 4-2 4-4-2-6-9v-3h2l4 4 1-1-3-3-1-4-2-2 1-3 1 1z"/>
	<path class="s63" d="m524 678l8 2 6 4 4 5v25l-2-3v-7l1-5-4-1-4-8-3-4-2-3-8-1-7 2v-2z"/>
	<path class="s76" d="m934 935v3l-10 10-2 6h-2l-2 4-6 7-9 2v2h-2l-2 4-7 1 5-5 12-11 11-9z"/>
	<path class="s8" d="m1085 756h4l1 4-3 3-1 7-4 4-4 5-4 3h-3l1-8 6-9 6-7z"/>
	<path class="s77" d="m853 99l5 2 15 8 14 9 12 9 5 5h-3l-11-8-5-1-14-10-13-8-6-4z"/>
	<path class="s78" d="m351 590h11l14 2-1 2-12 1-4 3-4 9h-2l1 3h-2l-2-5v-10z"/>
	<path class="s64" d="m616 448h2l5 5 5 3-1 7 10-2-1 2-6 2h-7l-8-4-3-5v-6z"/>
	<path class="s79" d="m888 123l4 2 11 7 5 2 10 9 10 8 4 3-1 3-8-5v-2l-6-2-13-10-9-7-7-5z"/>
	<path class="s25" d="m366 518l2 1-1 5-4 1-1 2-4 5v-2h-2l1 3-3 8-3-1-2 1 2 1v2l5 2 2 2-7-1-6-7 1-5 4-2v-2l8-7 3-3z"/>
	<path class="s8" d="m669 206l3 1v2l-5 2-11 1-10 6-5 5h-6l1-6 7-5 9-3z"/>
	<path class="s52" d="m511 27h10l1 2-3 1-20 1-8 1-4 2-13 1-21 3-3 2-14 1 4-2 23-5 39-6z"/>
	<path class="s80" d="m870 1035l3 2-15 9-23 13-8 4h-2v-3l6-4 5-1v-2l12-6 5-3 9-5z"/>
	<path class="s81" d="m1024 262l5 5 4 6v2h2l4 7 2 1 1 3 5 2 9 17-2 4-4-5-5-8-2-1v-3l-4-4-4-6-3-5-2-3v-3h-2l-4-6z"/>
	<path class="s82" d="m740 437h8l3 2v9l-1 2-6 1-6-5-5-5 3-3z"/>
	<path class="s83" d="m465 702l4 1-6 4h-4v3l-9 4-4 2-3 4h-2l-1 4-6-1-1-4 7-6 20-9z"/>
	<path class="s8" d="m801 802l6 1 4 2 2 2h-2v6l-1 2h-13l-5 1-1-4 7-1 1-7z"/>
	<path class="s8" d="m907 683h6l5 4v7l-2 2-10 1-2-3v-9z"/>
	<path class="s35" d="m685 395l5 1 2 5 5 2 3 3 5 2 2 5-2 3h-2l-2-5-4-1v-2l-7-1-7-4-2-5z"/>
	<path class="s23" d="m977 694l2 4-7 14-4 6-7 6-4 4-11 4-9 1 4-2 10-4 7-5h2l2-4 8-11z"/>
	<path class="s84" d="m807 774l9 6 9 8 6 4 1 2-6 1-8-4-7-7-5-8z"/>
	<path class="s85" d="m745 1054l2 1-1 2-8 4-8 2-5 2-8 2-7 2-10 2-6-1 4-2 29-8z"/>
	<path class="s5" d="m752 670l1 4 1 2-1 9-4 8-3 1v-3l-2-1-1 1-4 1-1-3 6-5 4-1-1-7h2l1-4z"/>
	<path class="s86" d="m726 946h3v2l-3 3h-2v2l-16 7-6 2-5 2-4 2-6-1 2-2 17-7 17-8z"/>
	<path class="s8" d="m371 798l6 1 2 5-1 4-3 5-4 2-5-1 1-8z"/>
	<path class="s8" d="m373 331h2l1 7-4 8h-8l-6-4v-4l12-1 2-5z"/>
	<path class="s3" d="m570 1007h6l4 6-1 4-5 5-4-1v-2h-2l-1 2-1-5 2-8z"/>
	<path class="s19" d="m542 756h1l-1 25 1 1v4l-8 7-4 1-2-4h6v-10h2v-8h2l2-15z"/>
	<path class="s87" d="m503 566h1l1 6v9l-2 4-2 7-2-2-2-9v-13z"/>
	<path class="s88" d="m1000 534l4 3-6 1-5 5-7 5-1 2h-2v-6l3-1h-4v2l-5 2-4-1v-2l15-8 4 2z"/>
	<path class="s89" d="m432 720h2l2 4 7-1v13l10 5 7 2v1l-9-1-10-6-8-8-2-4z"/>
	<path class="s50" d="m786 313h7l12 3 4 3h-25l-3 1-6-1-5 1 3-3z"/>
	<path class="s90" d="m511 615l5 2 5 6 6 2 4 5 3 3 13 7v3l-16-8-11-8-9-10z"/>
	<path class="s35" d="m401 679l4 2-1 2h2l2 3 1-3h3v-2l7-1 1 4-2 3-5 1-2 2-3 2-4-1-3-3-1-4 1-3-2-1z"/>
	<path class="s91" d="m272 688h2l-3 12-6 9-13 13-13 5-3-1 3-2 12-6 10-9 8-13z"/>
	<path class="s92" d="m627 148l5 5 1 8-1 4-5 2-2 4-3 1v-2l-3 1v-2h2l-2-6 2-4 4 2 3-3z"/>
	<path class="s55" d="m912 258l5 1 2 8 2-4 1 1 1 13-2 2-2-8h-1l-3 5h-2l-2 4v-8l2-2-1-9-2-1h2z"/>
	<path class="s93" d="m231 192v3l-2 4-5 5h-2v2l-7 6-7 8-9 9-2-2 6-7h2l2-4 12-12 5-6z"/>
	<path class="s94" d="m912 846l5 1 7 8 2 4v7l-3-1-1 2-1-4h-2l-1-4-1-3h-2l-1-5h2l-2-1v-2l-3-1z"/>
	<path class="s95" d="m850 270h1l1 8 2 1v2l3 1 1 7-2 4h-2l-1 2-4-5-1-4v-11z"/>
	<path class="s24" d="m451 620h3l3 8 1-5h3l-1 6-8 12-2 1 2-6h-3v-8l2-5z"/>
	<path class="s24" d="m437 397h21v1l-9 3-4 1-2 4-8 1-1-7z"/>
	<path class="s96" d="m931 658h2l-1 4-5 5-5 6-4 2-12 1-6 7-1 9-2 1-1-2v-9l4-6 5-2 11-2 6-3 8-9z"/>
	<path class="s45" d="m956 555l3 2-3 1 5-1 4-1 3 1v2l2 1-2 5-6 2-2-2 2-1-1-3h-2v3l-9-2v-4l2-2z"/>
	<path class="s97" d="m587 105l2 2 2 9v11l-3 10-6 9-2-1 2-6 3-5 3-12-1-3z"/>
	<path class="s98" d="m690 519l1 2 2 1-3 7 11 6 1 2 8 2v1h-7l-13-5-5-6v-3h2v-3l-2-1z"/>
	<path class="s40" d="m240 446l6 2 2 7-2 6-6 1-1-1-1-14z"/>
	<path class="s55" d="m240 231l2 1-8 8 1 3-6 10-3 4v3h-2l-2 4-1-5 8-16 9-10z"/>
	<path fill-rule="evenodd" class="s99" d="m278 109l2 1-6 6-4 2-3 5-9 6h-5l-5 4-3-1 18-13zm-22 17l1 2 1-2z"/>
	<path class="s100" d="m611 352h4l9 11 12 12 11 7-1 2-8-5-8-6-7-8-5-6-6 4h-4v-2h3l1-5z"/>
	<path class="s101" d="m222 860h2l1 8 1 3v4l2 7-2 3-2-6-2 3-3-7v-12z"/>
	<path class="s102" d="m498 790l5 2 12 13 8 13 1 3-4-1-6-10-6-8-6-5v-2h-2v-2h-2z"/>
	<path class="s40" d="m243 679l5 1 1 3 2 1-3 8-3 2-3-1 1-3-4-2 1-5z"/>
	<path class="s86" d="m633 613l4 2-9 10-9 8-9 5 1-3 8-7 6-5 4-6z"/>
	<path class="s103" d="m108 280h4l-2 5-11 18-3 4-2-1 2-6 10-17z"/>
	<path class="s96" d="m188 623l3 1-3 11-5 21-1 7h-1v-14l3-16z"/>
	<path class="s35" d="m739 453l4 4 2 4-1 4-3-2-4-2-3 1-2-1-1 2h-6v-4l9-3 2-2 3 1z"/>
	<path class="s69" d="m569 96h8l6 3 4 5-3 1-4-5-3-1v2h-4l-3 2-6-1-6 2 2-4 5-3z"/>
	<path class="s18" d="m630 165l1 3-8 16-3 5-3-1 2-3-1 1-1-4 3-5h2l2-5 2-3 1-3z"/>
	<path class="s104" d="m661 116h13l16 3v2l-18-2-10 1-6 2-6-1 3-3z"/>
	<path class="s88" d="m435 605h7l3 2v3l5 1 1 5v4l-8-4v-2l-4-2-1-1v-5z"/>
	<path class="s8" d="m626 525l5 2 5 3 1 7 2 2v5l-4-1-8-12z"/>
	<path class="s105" d="m546 975l7 2-1 4-9 10-6 7-2-1 2-4 10-11-3-1 1-5z"/>
	<path class="s71" d="m910 879h2l1 3-2 7-1 2h-2l1 3-3 3h-2l-1 5-5 3-2 2-2-2 4-4 1-2h2l-1-3 3-1 2-6 2-2 2-6z"/>
	<path class="s25" d="m245 841l6 1-1 6 4 1v4l-7-1-7 1 1-3-1-3 6-2-4-3z"/>
	<path class="s106" d="m41 704h2l4 14 4 16-1 5-2-3-7-25z"/>
	<path class="s107" d="m640 593l3 1v3h2l-1 6-5 8-3-1-1-5 2-2 2-9z"/>
	<path class="s108" d="m928 478l3 1 1 2v10l-3 8-6 4v2h-4v-2l-3-1 8-4 4-6z"/>
	<path class="s5" d="m620 166l2 1-1 2 1 1 3 2-3 5-3 3-3 7-2 1-1-5v-1l-1-2 4-3-1-2h3l-2-1 1-4v-3zm5 3l3 1-3 1z"/>
	<path class="s109" d="m910 1007l2 2-12 10-17 11-1-3 9-7 5-3 6-4 3-1v-2z"/>
	<path class="s110" d="m25 595h1l1 5h1l1 10v19l-1 6h-1l-2-26z"/>
	<path class="s111" d="m113 559l5 2 3 6v6l-4-1h-3l-3-9z"/>
	<path class="s112" d="m159 567l1 4 1 1 5-2 1 2-2 1v3l-1 3-5 1v2l-4-2v-3l-2-2 5-5z"/>
	<path class="s102" d="m49 407l2 1-1 5-1 2-1 7-3 11-2 7-3 1 1-8z"/>
	<path class="s113" d="m916 269l4 2 2 8-1 3-4-2-2 1-2 4-3-1 1-4 2-4h2l1-4z"/>
	<path class="s24" d="m894 852l9 1 3 2 5 1v2l4 2v5h-2v-4l-6-2v-2l-5 2-3-3-5 1v-2l-4 2-2-4z"/>
	<path class="s114" d="m870 1035l3 2-15 9-10 5v-3l6-5 8-4z"/>
	<path class="s115" d="m715 595h18l-2 3-18 1h-11l3-3z"/>
	<path class="s116" d="m433 398h2l1 9 4 5 2 2v5l4 2 4 4-5-2-9-8-4-7v-7z"/>
	<path class="s117" d="m337 934l5 2 11 11 12 9 3 3-2 1-10-7-10-9-9-9z"/>
	<path class="s118" d="m651 984l4 1-3 8v12 4l-2 2-2-6v-12z"/>
	<path class="s90" d="m666 199h14l6 1v3l-6 1-1 2-5-2-6-1-3-2z"/>
	<path class="s119" d="m982 543h4l-1 2-2 3-6 1v2h-2l-1 2-2-3-6 2-4 2 2-5 7-4 6 1 5-1z"/>
	<path class="s62" d="m580 138l3 1-3 9-4 2h-8v-3l2-1v-3l3-1 2 2 4-2-2-2z"/>
	<path class="s120" d="m721 81l17 5 6 2 1 2 2 1-4 1-25-8 3-1z"/>
	<path class="s121" d="m748 348l2 4 2 3-1 4-6 7-4 2h-4v-2l4-2h3l2-7 1-8z"/>
	<path class="s122" d="m403 927l2 3 4 8 4 5 13 7v1l-7-1-9-6-6-7-2-5z"/>
	<path class="s123" d="m965 714l2 2-3 5-4 5-7 4-11 3h-5l4-2 10-4 7-5h2l2-4z"/>
	<path class="s124" d="m543 758l2 3v22h-5v-2h2l-1-2 1-16z"/>
	<path class="s125" d="m127 597l2 1-6 6v3l2-2 3 2v5h2l1 3-1 1 2 2-4-1-7-7-1-6z"/>
	<path class="s126" d="m736 697l5 2v3l-6 3-5-1-4-3 1-3h3z"/>
	<path class="s8" d="m952 493l2 1-1 7-5 9-3 1-1-3 6-14z"/>
	<path class="s127" d="m511 27h10l1 2-3 1-20 1-8 1-5 2v-2h2v-2z"/>
	<path class="s128" d="m180 246l2 1-2 4-13 16-2 2-1-3 6-9 3-3 1-2h2l1-4z"/>
	<path class="s129" d="m803 492l13 13 5 6 5 5h-3l-12-11-8-10z"/>
	<path class="s103" d="m934 332h6l13 7 5 5h-4l-11-6-9-5z"/>
	<path class="s130" d="m276 888l2 1-1 5 1 2-5 5h-3-2-5l4-5 4-1 2-4 1-1z"/>
	<path class="s131" d="m875 225h8l1 2h-9l1 5h-5-3-2v2h-2l-2 4-2 2 1-5 7-7z"/>
	<path class="s4" d="m887 233l7 1 1 3 4 3v2l-4 1-5-3h-3l-2-4z"/>
	<path class="s95" d="m543 979l3 2 2-1-2 4-6 7-4-2 1-5 1-3z"/>
	<path class="s132" d="m491 156l3 1-2 5-8 7-9 4 1-3 6-4 6-7z"/>
	<path class="s133" d="m745 1054l2 1-1 2-8 4-8 2-5 2-2-2 1-2z"/>
	<path class="s27" d="m521 26h28v1l-12 1-4 2h-12z"/>
	<path class="s134" d="m27 528l2 4-1 18h-3v-20z"/>
	<path class="s43" d="m1008 846h2l-2 4h-2l-1 5-3 3-2 4-2 1-1 3-3-3 8-11 4-5z"/>
	<path class="s24" d="m530 682h3l4 7 3 5h1v5l-4-1-4-8-3-4z"/>
	<path class="s130" d="m984 557l4 1 6-1 3 3-4 3-4 1h-3l-3-1z"/>
	<path class="s135" d="m859 238h3l-1 7-2 5-3 6-3 1 1-7z"/>
	<path class="s136" d="m358 842h11l-3 3-4 2h-7l-6-2v-2z"/>
	<path class="s18" d="m740 541l6 2 1-2h2v2h2l1 4-15-1-6-1 2-3z"/>
	<path class="s76" d="m328 284l3 1v2l5 1 5 4 2 6-8-4-7-7z"/>
	<path class="s137" d="m557 104l2 2-1 14-2 1-1 12h-1v-19z"/>
	<path class="s138" d="m261 902l2 1v5l4-1-1 5 1 2h-10l-2-4h5l-2-3 2-1z"/>
	<path class="s139" d="m972 199h2l7 11 2 5 4 2 8 11h-3l-8-10v-2l-3-1-6-9z"/>
	<path class="s140" d="m588 1014l4 1v12l-3 10-2-2 1-13-1-4h2z"/>
	<path class="s45" d="m627 682h9l4 3 4 2-2 1-9-1h-3-7l1-3z"/>
	<path class="s96" d="m811 354l1 4-4 8-1 15h-2l-1-3v-7l4-12z"/>
	<path class="s141" d="m539 502l3 1-2 5-11 5-2-1 2-4z"/>
	<path class="s142" d="m1046 288l3 4 7 14-3 3-3-5-1-5-4-7z"/>
	<path class="s143" d="m858 288l2 1v2l5 2-2 5-5-2-2 1-2-1-1-5 3 1v-3z"/>
	<path class="s144" d="m561 243h2l3 3 2 3 3-1 2 7-4 2-6-8-2-3z"/>
	<path class="s145" d="m143 556l4 1 3 1v2l4-2 2 2v3h4l-1 4-12-6-5-4z"/>
	<path class="s146" d="m212 211h2l-1 4-14 14-2-2 6-7h2l2-4z"/>
	<path class="s36" d="m904 293l3 1-2 2-3 2-9 3h-8l1-2 7-1v-2z"/>
	<path class="s147" d="m872 679h1l4 15 4 9v2l-3-1-3-6-3-7-1-8z"/>
	<path class="s148" d="m76 461l1 4-4 19h-1v-21l2-1v2h2z"/>
	<path class="s149" d="m915 143l5 1 12 10-1 3-8-5v-2l-6-2z"/>
	<path class="s150" d="m651 684l14 7 14 8-3 2-9-6-16-8z"/>
	<path class="s25" d="m690 519l1 2 2 1-3 7 2 4h-2l-1-2-2 1-2-3v-3h2v-3l-2-1z"/>
	<path class="s151" d="m614 62h10l3 1v2h-16l-15-1v-1z"/>
	<path class="s152" d="m622 917l5 5 9 6v2l3 1-1 2-5-2-10-9-2-3z"/>
	<path class="s153" d="m281 843h5l4 5v6l-5 1-2-4h2v-5l-4-2z"/>
	<path class="s126" d="m625 672l8 2 7 3-1 2-5-1-2-1h-6l-2 1-3-2 1-3z"/>
	<path class="s154" d="m536 357l5 1 2 5-10 2h-2l1-6z"/>
	<path class="s117" d="m449 769h9l14 3 3 2-25-2-2-2z"/>
	<path class="s155" d="m804 754h1l1 18-2 1-2-6v-12z"/>
	<path class="s156" d="m379 594h9l12 2 2 1-1 2h-12l-1-3-6 1-3-1z"/>
	<path class="s157" d="m983 539l6 2v2l-3 1-4-1v2l-5 2-4-1v-2z"/>
	<path class="s158" d="m127 525l8 1 10 5-1 3-1-2-9-3h-10v-3z"/>
	<path class="s127" d="m610 170l4 2-1 4-3 4-4 1-1-5 2-3h3z"/>
	<path class="s159" d="m894 503h21l2 2-3 1h-18l-2-1z"/>
	<path class="s160" d="m870 230l1 2 6-1-1 3-8 1v5l-5 2 1-8h2v-2z"/>
	<path class="s24" d="m557 123l2 1 1 3h1v9l-5 1-1-3 1-9z"/>
	<path class="s120" d="m641 63l9 2v1l-7 1h-10l-9-1v-1z"/>
	<path class="s161" d="m272 688h2l-3 12-4 6-5 3 2-5 6-10z"/>
	<path class="s23" d="m612 853l1 3v7h-2l1 3-2 7-2-3v-10l1-5h2z"/>
	<path class="s162" d="m881 842h20l10 2-1 3-16-3h-13z"/>
	<path class="s157" d="m465 702l4 1-6 4h-4v3l-8 2v-2l2-2 3-2z"/>
	<path class="s163" d="m931 658h2l-1 4-5 5-5 6-4 2-5-1 3-2 6-3 8-9z"/>
	<path class="s140" d="m435 606h3l2 6 4 4-2 1-7-3v-2l-2-1 1-4z"/>
	<path class="s164" d="m32 666l4 2 2 9v4h-4l-2-10z"/>
	<path class="s30" d="m269 901l1 4-1 5 1 3h-5v-4h2v-2l-4 1-1-4h2v2h2l-1-4z"/>
	<path class="s165" d="m226 888l4 3 2 1 2 6 7 6 2 1v2l3 1-2 1-8-6-8-9-2-3z"/>
	<path class="s166" d="m41 704h2l4 14h-2v5l-2-4-2-8z"/>
	<path class="s167" d="m569 883l4 2 3 5h-2l1 4-5-1v-3h-2v-6z"/>
	<path class="s52" d="m691 710l5 2 3 7 1 1v6l-3-3-3-5-2-4z"/>
	<path class="s8" d="m73 384l4 2 1 5-5 5h-1v-11z"/>
	<path class="s55" d="m523 360h4v3h-2l-2 4-5 2-1-4z"/>
	<path class="s65" d="m852 283h2v2l4 2-1 6h-3l-1 2-2-2z"/>
	<path class="s168" d="m625 988l3 1 1 6-4 3-5-6z"/>
	<path class="s169" d="m1036 275l4 2 5 8v2l-4-1-6-8z"/>
	<path class="s170" d="m661 116h13l16 3v2l-18-2v-2h-11z"/>
	<path class="s171" d="m823 875h2l1 3v17l-2 4z"/>
	<path class="s172" d="m939 566l4 4 2 4 6 4v2l-4-2-11-8v-2z"/>
	<path class="s173" d="m1036 557h11l3 2h-3l-1 4h-3l-4-3v-2z"/>
	<path class="s174" d="m279 262l3 3 1 9-5 1v-11z"/>
	<path class="s175" d="m340 794l2 1-7 7-2 10-3-1 2-9 5-5z"/>
	<path class="s176" d="m630 165l1 3-5 10-3-3 2-4 2-5z"/>
	<path class="s177" d="m924 152l7 4h3l7 6h-3-5l-5-5-4-3z"/>
	<path class="s77" d="m627 148l5 5 1 8-2 4-3-8z"/>
	<path class="s178" d="m239 900h6l2 2-1 2 3 3v2l-4 1v-2l-2-1v-2l-4-2z"/>
	<path class="s19" d="m221 872h2l3 3 2 7-2 3-2-6-2 3-2-6z"/>
	<path class="s154" d="m625 764l3 1 5-1-1 3h-5v2h-3l-1 2-2-1-1 3-5 1 5-5 5-2z"/>
	<path class="s24" d="m783 521l4 3 1 5-2 6-4-4z"/>
	<path class="s24" d="m567 110l3 3 1 4-3 1-6-1-1 2 1-4 3-3h2z"/>
	<path class="s179" d="m752 670l1 4 1 6h-3-2l-1 2-1-6h2l1-4z"/>
	<path class="s180" d="m588 497l11 2 3 2 1 2-11-1-2-1v-3z"/>
	<path class="s64" d="m649 449l5 1-2 3v2l-5 1-3-4 1-2z"/>
	<path class="s96" d="m738 257l2 3-1 2h-2l-1 4-4 4-3 5-4 1 6-8 6-9z"/>
	<path class="s181" d="m240 231l2 1-8 8-2 4-4 6h-2l2-5 6-8z"/>
	<path class="s182" d="m176 952l4 2 12 12-1 2-13-12z"/>
	<path class="s143" d="m786 546l2 1 1 4-1 2-10 1-2-2 7-2z"/>
	<path class="s183" d="m366 518l2 1-1 5-4 1-1 2-5 1 3-6z"/>
	<path class="s100" d="m877 298h6l1 3-8 2-8-1 4-1v-2l4 1z"/>
	<path class="s24" d="m279 250l3 1-1 4h2v5h2v3h-2l-1 2-3-8v-2l-1-2z"/>
	<path class="s184" d="m558 235h4l4 5 2 5 2 2-3 1-4-2-1-4v-2l-2-1z"/>
	<path class="s185" d="m664 232h7l1 4-8 1-5 1v-3l5-1z"/>
	<path class="s186" d="m571 97l5 1 1 3h-4l-3 2-7-1-1-2z"/>
	<path class="s34" d="m270 847l7 2 2 5 4 2v4h-2v-2h-2l-1-5-5-2-3-2z"/>
	<path class="s187" d="m1025 814h1l-1 8-5 5 1 2-4 1 2-6z"/>
	<path class="s131" d="m524 678l6 1-2 4-8-1-7 2v-2z"/>
	<path class="s126" d="m693 598h8l-1 5-7-1-2-1v-2z"/>
	<path class="s188" d="m667 362l6 1 12 5 2 1v2l-6-1-14-7z"/>
	<path class="s189" d="m918 631l6 1 4 2 1 6-7-5-7-2z"/>
	<path class="s95" d="m161 563l5 3-1 2h-3v2l3-1v2l-6 3v-8z"/>
	<path class="s100" d="m97 559l5 2 2 3-5 3h-2l-1-6z"/>
	<path class="s36" d="m143 553l5 1v2l3-1v2l2 1v2h-3v-2l-10-1-2-2z"/>
	<path class="s190" d="m146 481h3l-2 5-8 6h-2l2-4 4-4h3z"/>
	<path class="s160" d="m437 397h12v1l-9 3v2l-4-2-1-3z"/>
	<path class="s52" d="m954 725l4 1-3 3-13 4h-5l4-2 10-4z"/>
	<path class="s34" d="m444 715l2 1-3 4h-2l-1 4-6-1v-3l8-3z"/>
	<path class="s191" d="m808 628l2 2-6 5-4 6-1 3h-2l-2 4v-3l7-11z"/>
	<path class="s154" d="m374 601l6 1-4 2-12 3v-3l6-2z"/>
	<path class="s44" d="m928 478l3 1 1 2v10l-3 1z"/>
	<path class="s8" d="m76 360l3 1-1 6-5 2-1-4z"/>
	<path class="s59" d="m80 334l2 2-4 6-1 5-4-1 5-11z"/>
	<path class="s192" d="m1064 322l3 4 3 6-2 4-5-9z"/>
	<path class="s193" d="m209 931l4 2 10 10-2 1-8-7-4-4z"/>
	<path class="s62" d="m910 879h2l1 3-2 7-1 2-4 1 1-7 3-5z"/>
	<path class="s156" d="m681 394h14l7 2v2l-21-3z"/>
	<path class="s100" d="m912 258l5 1v7l-5-1v-4l-2-1h2z"/>
	<path class="s194" d="m180 246l2 1-2 4-5 6-2-1 1-4h2l1-4z"/>
	<path class="s120" d="m757 94h5l6 4-1 2-5-1-8-3z"/>
	<path class="s195" d="m361 1077l6 2 3 3v2l-9-3-2-1v-2z"/>
	<path class="s25" d="m562 1018l4 1h4l-1 5-3 1-3-2z"/>
	<path class="s146" d="m910 1007l2 2-11 9-1-3 3-3h2v-2z"/>
	<path class="s196" d="m417 692h2l-1 4-6 8-2-1 2-4z"/>
	<path class="s197" d="m330 524h2l-2 4-10 8h-2l2-4h2v-2l6-4z"/>
	<path class="s173" d="m537 353l7 1 3 2-1 3-4-1v-2h-9v-2z"/>
	<path class="s198" d="m260 121l2 1-3 4h-3v2l-7 4-4 1 4-4z"/>
	<path class="s199" d="m649 995l2 1 1 9v4l-2 2-1-2z"/>
	<path class="s200" d="m877 841h14v1l-13 2h-9v-2z"/>
	<path class="s201" d="m731 770l7 2 4 3-1 3-5-2-5-5z"/>
	<path class="s202" d="m231 143v3l-10 10-2-1 3-5z"/>
	<path class="s203" d="m587 133l1 4-6 9-2-1 2-6 4-2z"/>
	<path class="s204" d="m860 795l14 7 3 1-1 2-11-4-5-4z"/>
	<path class="s205" d="m989 603l11 6 2 2-4 1-8-5z"/>
	<path class="s206" d="m726 538l5 2-1 4h-7l-2-2 2-2h3z"/>
	<path class="s152" d="m878 160l4 2 5 3 1 3h-4l-7-5z"/>
	<path class="s207" d="m348 71l2 1-3 4-5 2h-6l4-3z"/>
	<path class="s208" d="m555 1011l3 2-1 10-3 2v-10z"/>
	<path class="s209" d="m272 891l2 2v4l-3-1zm-5 5l4 1-2 3-1 1h-5z"/>
	<path class="s159" d="m1013 834l3 4-6 7-2-3z"/>
	<path class="s210" d="m993 485l3 1 7 9v3l-6-5-4-6z"/>
	<path class="s211" d="m100 448l2 2v8l-3 4-1-7z"/>
	<path class="s212" d="m402 358l5 5 6 5v2l-5-2-6-6z"/>
	<path class="s65" d="m884 908l4 1v3l2 2-2 1h-9l4-2z"/>
	<path class="s213" d="m220 856h2l1 4-1 5-2-2-1 8h-1v-9z"/>
	<path class="s176" d="m388 457h1l1 8-3 10h-1l1-13z"/>
	<path class="s214" d="m221 201l3 1v2h-2v2l-8 6v-3z"/>
	<path class="s25" d="m275 287l3 2-4 2-7 3-3-2z"/>
	<path class="s215" d="m730 1059l4 1-8 5-3-2 1-2z"/>
	<path class="s216" d="m590 1024h1v8l-2 5-2-2 1-10z"/>
	<path class="s65" d="m220 862l1 4 1 5 2 1h-3l-1 4-1-1v-12z"/>
	<path class="s181" d="m718 682l3 4v2l4 1-1 7-3-4-3-7z"/>
	<path class="s174" d="m747 541h2v2h2l1 4-9-1z"/>
	<path class="s217" d="m433 537l3 1 1 2-4 1h-9l3-1v-2z"/>
	<path class="s218" d="m49 407l2 1-1 5-1 2v4l-4 3 2-9z"/>
	<path class="s120" d="m806 369h1v12h-2l-1-3v-7z"/>
	<path class="s100" d="m548 360l3 1 1 8-2 3v-7l-4-2z"/>
	<path class="s77" d="m884 226l3 1v2l-13 1 1-3z"/>
	<path class="s219" d="m974 195l7 6 1 4-4-2-5-7z"/>
	<path class="s160" d="m622 155l2 1 1-1 1 2 3 1-4 4-3-1z"/>
	<path class="s220" d="m526 142l8 1v4h-6z"/>
	<path class="s221" d="m328 81l3 1-1 2h-2v2l-7 2-1-3z"/>
	<path class="s222" d="m870 1035l3 2-8 5-3-1 5-5z"/>
	<path class="s216" d="m278 902l2 3-5 5h-4l1-4 1 2 3-2v-3z"/>
	<path class="s223" d="m912 846l5 1 5 6h-3l-5-3v-2l-3-1z"/>
	<path class="s224" d="m977 759h2l-2 6-4 6-2-3z"/>
	<path class="s225" d="m310 747l2 1-3 6-3 2-2 3 1-6z"/>
	<path class="s123" d="m432 720h2l2 4 4 1-8 2-1-6z"/>
	<path class="s35" d="m428 608l6 2 2 5-4-1-5-4z"/>
	<path class="s140" d="m84 565l2 1v10l2 1-2 2-2-3-1-10z"/>
	<path class="s226" d="m1046 288l3 4 3 5v2h-3l-4-7z"/>
	<path class="s18" d="m893 124l5 2 6 5-2 2-10-7z"/>
	<path class="s227" d="m651 66l4 1 5 2-4 1-15-2v-1z"/>
	<path class="s228" d="m495 29h7v2l-11 1-5 2v-2h2v-2z"/>
	<path class="s151" d="m977 694l2 4-3 5-4 2 2-6z"/>
	<path class="s154" d="m522 683l6 2 2 7-8-5z"/>
	<path class="s35" d="m367 621h2l3 8-3 1-3-3z"/>
	<path class="s229" d="m854 260h3l1 4-1 3h-2l1 6h-2l-1-4z"/>
	<path class="s230" d="m566 1034h2v2l4 1 5 3v2l-6-1-5-5z"/>
	<path class="s231" d="m622 917l9 9-3 1-7-7z"/>
	<path class="s232" d="m875 694h2l4 9v2l-3-1-3-6z"/>
	<path class="s207" d="m790 660l2 1v10l-2 2-1-6z"/>
	<path class="s140" d="m444 617l4 1 3 2 1 4-3 5-1-2 1-4-1-3h-2v-2z"/>
	<path class="s233" d="m203 220h3l-2 4-6 5v-3z"/>
	<path class="s46" d="m159 567l1 4-2 5-3 1-2-2 5-5z"/>
	<path class="s50" d="m72 351l1 3-3 6-3-1 3-7z"/>
	<path class="s234" d="m848 275h1v8h2l-1 5h2l-2 4-2-6z"/>
	<path class="s235" d="m114 271h4l-2 4-5 4-2-1z"/>
	<path class="s108" d="m485 230l5 2v2h2v2l2 1-2 1-7-3z"/>
	<path class="s182" d="m598 169l6 3v2l-7-2zm1 4h2l-1 5h-2l-1-3z"/>
</svg>